<?xml version="1.0" encoding="UTF-8"?><svg id="Layer_1" xmlns="http://www.w3.org/2000/svg" xmlns:xlink="http://www.w3.org/1999/xlink" viewBox="0 0 153.59 244.25"><defs><style>.cls-1{stroke:#0081c8;}.cls-1,.cls-2,.cls-3,.cls-4,.cls-5{fill:none;stroke-miterlimit:10;stroke-width:3.52px;}.cls-6{fill:url(#linear-gradient);}.cls-2{stroke:#00a651;}.cls-3{stroke:#fcb131;}.cls-4{stroke:#ee334e;}.cls-5{stroke:#000;}</style><linearGradient id="linear-gradient" x1="-629.1" y1="391.8" x2="-628.09" y2="391.8" gradientTransform="translate(59858.4 -42405.49) scale(95.06 108.37)" gradientUnits="userSpaceOnUse"><stop offset="0" stop-color="#ff15cb"/><stop offset=".11" stop-color="#fe5088"/><stop offset=".22" stop-color="#fe834e"/><stop offset=".31" stop-color="#fda824"/><stop offset=".38" stop-color="#fdbf0b"/><stop offset=".43" stop-color="#fdc701"/><stop offset=".46" stop-color="#fdc800"/><stop offset=".7" stop-color="#3fffec"/></linearGradient></defs><circle class="cls-1" cx="23" cy="200.22" r="21.24"/><circle class="cls-4" cx="122.65" cy="200.22" r="21.24"/><circle class="cls-2" cx="97.63" cy="221.2" r="21.24"/><path class="cls-4" d="M122.65,221.46c-2.68,0-5.24-.49-7.59-1.4"/><circle class="cls-5" cx="72.94" cy="200.22" r="21.24"/><path class="cls-2" d="M76.63,224.38c-.35-2.33-.31-4.64.07-6.84"/><circle class="cls-3" cx="47.84" cy="221.25" r="21.24"/><path class="cls-5" d="M72.94,221.46c-2.87,0-5.6-.57-8.1-1.6"/><path class="cls-1" d="M43.91,196.49c.43,2.4.45,4.92,0,7.46"/><path d="M69.8,91.37c.07,1.92-1.42,3.53-3.33,3.6H3.6c-1.92.07-3.53-1.42-3.6-3.33V28.67c-.07-1.92,1.42-3.53,3.33-3.6h23.47c1.92-.07,3.53,1.42,3.6,3.33v36.37c-.11,1.65,1.13,3.09,2.79,3.2.14.01.28.01.41,0h32.6c1.92-.07,3.53,1.42,3.6,3.33v20.07ZM44.9,126.37v-3.8l-2.5-2.5h-16.5l-2.5,2.5v4H0v-15.9l10.6-10.6h48.7l10.6,10.6v23l-7.1,7.1-30.7,8.8h37.8v20.4H0v-25.2l7.1-7.1,37.8-11.3ZM84.9,135.17c-8.3-2.9-11.9-7.9-11.9-15.2,0-13.6,11.9-20.6,37.6-20.6s37.6,7.1,37.6,20.6c0,7.3-3.6,12.3-11.9,15.2,9,3,12.9,8.3,12.9,16,0,13.6-12.1,20.5-38.6,20.5s-38.6-7-38.6-20.5c0-7.7,3.9-13,12.9-16ZM110.6,153.77c7.5,0,11.3-1.8,11.3-5.3s-3.9-5.4-11.3-5.4-11.2,1.9-11.2,5.4,3.9,5.3,11.2,5.3ZM121.4,122.17c0-3.5-3.7-5.3-10.8-5.3s-10.7,1.9-10.7,5.3,3.9,5.4,10.7,5.4c7,0,10.8-1.9,10.8-5.4ZM143.4,167.07h2.2v.3h-.9v2.6h-.4v-2.6h-.9v-.3h0ZM146.5,169.97h-.4v-3h.5l.6,1.2.6-1.2h.5v2.9h-.4v-2.4l-.7,1.4-.7-1.4v2.5h0Z"/><path class="cls-6" d="M100.1,1.17c-.2-.2-.4-.1-.5-.4l.1-.1c2.84.48,5.52,1.65,7.8,3.4.56.45,1.31.6,2,.4.3-.1.5.1.7.3.8.6,1.7,1.2,2.5,1.9,2.1,2,4.5,3.8,5.5,6.8.5-.6,1-.9.9-1.6.02-.21.09-.42.2-.6,1.72-2.45,3.89-4.56,6.4-6.2.38-.25.84-.36,1.3-.3.6.2,1.2-.2,1.7-.5,1.7-1,3.8-1,5.6-1.5-.2.1-.3.3-.5.4,1-.1,1.8-.9,3-.4-1.1.9-2.1,2-3.1,2.9-1.22,1.03-2.18,2.33-2.8,3.8-.6,1.9-1.6,3.8-1.8,5.8-.7,5.1-.1,10.2.5,15.3.6,5.33,1.3,10.63,2.1,15.9.9,5.9,2.1,11.8,3.4,17.7,1.44,6.33,3.24,12.58,5.4,18.7.25.92.45,1.86.6,2.8.1.5.2.9.8.3.5-.4,1.1-.8,1.8-1.3-.3,1.1-1.1,1.7-1.5,2.5.5,0,.6-.5.8-.7,1.4-1.2,3.1-1.2,4.8-1.1.3,0,.6.2.9,0,.72-.45,1.6-.56,2.4-.3.57.26,1.25.14,1.7-.3.2-.2.5-.4.7-.1s0,.5-.2.7c-.9,1.3-1.9,2.5-2.8,3.8-2.53,3.45-4.18,7.47-4.8,11.7-.2,1.2-.5,2.4-.7,3.6-.03.93-.57,1.77-1.4,2.2-.61.29-1.13.74-1.5,1.3-.2.4-.6.4-1,.3-1.37-.42-2.85-.38-4.2.1-.5.02-1-.02-1.5-.1-1.3.1-2.6.1-3.9,0-.44-.01-.85-.24-1.1-.6-.51-.76-.88-1.61-1.1-2.5-.4-1.6-.9-3.2-1.3-4.8-.1-.4-.2-.8.1-1.1.18-.3.22-.67.1-1-.4.1-.1.6-.5.8-.6-2.1-1.1-4.2-1.7-6.4-1.3-4.7-2.4-9.4-3.4-14.1-1.1-5-1.8-10.1-2.9-15.1-1-4.6-1.9-9.2-2.9-13.8-.2-.7.4-1,.3-1.7-1.6-8.1-2-16.2-2.3-24.4,0-.2.1-.6-.2-.6s0,.4-.4.5c-.7-1-1.4-2-2.1-3.1-.2-.3-.4-.6-.8-.5s-.4.5-.4.7c-1.2,6.3-2.7,12.6-3.8,18.9-.8,4.3-1.8,8.6-2.9,12.8-.3,1-.4,2-.6,2.9s0,1.1.9,1.2c.94.08,1.87.22,2.8.4.33-.06.65.1.8.4-1.31-.1-2.62,0-3.9.3.9.2,1.8.4,2.6.5,3.27.55,6.6.65,9.9.3.2,0,.3-.1.4.1s0,.3-.1.5-.6.5-.6,1c0,.3-.3.5.2.6.3.1.2.4.1.6-.2.4-.5,1-.9,1-.6,0-1.1.4-1.6.5.3,0,.7.1,1,.1-2.7,1.4-5.5.3-8.2.6,1.46.44,2.98.65,4.5.6,1.55.18,3.12.01,4.6-.5-.1.9-1.1.8-1.4,1.4.5.3.9-.6,1.5-.1-1.8,2.11-4.55,3.17-7.3,2.8,1.3.5,2.6.1,3.9.4-.9,1.3-2.2,1.2-3.4,1.1-2.4-.1-4.7-.3-7.1-.5-.5-.1-.7.2-.8.7-.5,2.9-1.1,5.7-1.6,8.5s-1.1,5.4-1.6,8.1c-.1.3,0,.7-.5.7s-.4.4-.4.7,0,.7-.5,1c1.1-6.7,1.7-13.3,2.6-19.9-.6.2-.6.6-.6,1l-1.5,12c-.2,1.6-.5,3.2-.8,4.8-.06.77-.42,1.49-1,2-.6.4-.3,1.2.4,1.5.57.19,1.11.45,1.6.8.4.3,1,.4,1.7.8-1.1,0-1.7-.8-2.7-.6.5.8,1.4.9,2.1,1.2,1.4.7,3,.7,4.4,1.4.4.2.9.1,1.2.2s1.3-.7,1.3.5c0,.1.5.2.6.1,1.09-.41,2.3-.3,3.3.3.7.3,1.4-.2,2.1-.1,2.1.1,4-.7,6-1.2.7-.2.9-1.1,1.8-1.1-.26,1.03-.91,1.92-1.8,2.5-.1.1-.7.3-.1.6.3.1,0,.2-.1.4-.85.88-1.75,1.72-2.7,2.5-1.49.94-2.84,2.08-4,3.4-.74.99-1.61,1.86-2.6,2.6-.5.3,0,.9-.4,1.2-.78.83-1.74,1.48-2.8,1.9-3.4,1.2-6.8.9-10.2.5-4.07-.59-8.09-1.53-12-2.8-3.1-.9-6-2.1-9.2-2.7-3.48-.59-7.05-.31-10.4.8-1.2.49-2.37,1.05-3.5,1.7-.3.1-.5.5-.9.3s0-.5.1-.8c-.05-.63.17-1.24.6-1.7.18-.22.15-.54-.06-.72-.04-.03-.09-.06-.14-.08-.8-.3-.4-.6-.2-1,1.87-3.33,4.23-6.37,7-9,.8-.8,1.8-1.2,2.4-2,1.1-1.3,2.6-1.8,3.9-2.7,1.53-.95,3.3-1.43,5.1-1.4,2.3-.15,4.62-.05,6.9.3.8.1,1.1-.2,1.2-.9.06-1.41.23-2.81.5-4.2.3-1.8.5-3.6.9-5.4l.9-5.4v-.1q.2-1.4-1.3-1.1c-2.57.42-5.02,1.37-7.2,2.8-1.37.74-2.33,2.07-2.6,3.6-.1.6-.5,1.1-.6,1.8,0,.1.1.4-.2.5,0-.4-.6,0-.6-.5,0-.2-.1-.3-.1-.5-.15-1.9-.15-3.8,0-5.7.19-.84.5-1.64.9-2.4.9-2.7,1.4-5.6,3.5-7.9.4-.5-.1-.4-.2-.6-2.1-1.5-4.6-2.3-6.5-4.1-3.9-3.6-7.6-7.4-10.2-12-2.11-3.38-3.12-7.32-2.9-11.3.07-1.3.03-2.6-.1-3.9-.1-2.2.9-4.1,1.4-6.2.3-1.2,1.1-2.2,1.3-3.3s1.2-1.9,1.4-3.1c.1-.4.8-.7.9-1.1,1.2-3.2,4.3-4.5,6.7-6.5,4.9-4.1,10.8-6.2,16.9-7.5,1.3-.3,2.6,0,3.8-.6.4-.2.9.1,1.4.2.68.21,1.39.28,2.1.2,1.51-.39,3.11-.21,4.5.5-.3.3-.2.2,0,.2h0ZM77,35.47c-.1-.2-.2-.2-.2-.3s-.1-.3-.1-.4c.3-1.6.5-3.4,1.7-4.6,1.7-1.8,3.4-3.4,5.1-5.2,3.7-3.9,8.4-5.4,13.6-5.4.6,0,.8-.1,1-.7.6-1.9.9-3.8,1.5-5.7.1-.3.1-.5-.2-.6-1.49-.66-3.08-1.06-4.7-1.2-1.55.03-3.08.37-4.5,1-5.3,1.5-10.08,4.44-13.8,8.5-2.87,3.35-5.07,7.22-6.5,11.4-.56,1.36-.84,2.83-.8,4.3,0,.2-.2.5.2.6s.5.2.2.5-.1.6-.1.8c-.1,2.1.7,3.9,1.2,5.8,1.5,5,3.9,9.4,8.6,12.3.3.2,1.2.2.6,1-.1.2,1.7,1.1,2.1.9,2.41-1.09,4.97-1.8,7.6-2.1.6-.1.9-.5.8-1-.06-.81.04-1.63.3-2.4.4-1.7,1.1-3.4,1.4-5.1.9-4.1,1.7-8.2,2.5-12.3.3-1.4.7-2.8,1-4.3.1-.4.2-.8-.4-.9-3.9-1.32-8.13-1.28-12,.1-1,.4-2.3.7-2.9,1.6-.8,1.2-2.4,1.8-3.2,3.4ZM107.1,26.37c-2.6,9.8-4.5,19.7-6.2,29.7,2.3-9.9,4.1-19.8,6.2-29.7ZM80.6,9.87c2.47-1.24,5.09-2.15,7.8-2.7-1.54-.08-3.08.19-4.5.8-.2.1-.5.2-.7-.1-.1-.1.4-.4-.1-.3-.2,0-.6.1-.6.4-.1.9-.4.9-1.1.4-.4-.3-.6.1-.9.2s-.2.3,0,.5c.6.2-.1.4.1.8ZM122,47.87c-.02-2.56-.35-5.12-1-7.6.1,2.56.43,5.1,1,7.6ZM137.4,90.87c.05.63.05,1.27,0,1.9-.1.7.5,1.5.8,2.2.1.2.2.6.5.5s.2-.5.1-.8c-.4-1.2-.9-2.5-1.4-3.8h0ZM89.1,6.97c1.54.07,3.09-.06,4.6-.4-1.5-.1-3.1-.5-4.6.4ZM77,11.57c.82-.32,1.56-.8,2.2-1.4-.2.1-.5.1-.8.2.21-.44.48-.84.8-1.2-.7.3-1.3.6-1.9.9-.1.1-.2.2-.2.3s.2.2.4.2.3-.3.5,0c-.2.4-.7.5-1,1ZM133.7,99.27c-.24-1.23-.68-2.41-1.3-3.5.1,1.3.2,2.6,1.3,3.5ZM123.8,28.77c0,1.2.1,2.4.1,3.7-.1-1.2.9-2.5-.1-3.7ZM123.7,7.57c.8-.6,1.5-1.2,2.3-1.8-1.04.14-1.92.83-2.3,1.8ZM104.6,15.07c-.3-.6-.9-.5-1.2-.8,0,0-.2,0-.2.1v.4c.4.1.8.5,1.4.3ZM135.9,63.77c-.08.12-.11.26-.1.4l2.4,9.6c-.57-3.38-1.33-6.72-2.3-10h0ZM115.7,45.27c-.4-2.5-.7-4.8-1-7.1-.05,2.4.29,4.8,1,7.1ZM125,92.17c-.4-2-1-4-1.5-6,.25,2.05.75,4.07,1.5,6ZM116.7,54.77l-.9-5.7c-.04,1.94.26,3.87.9,5.7ZM117.9,60.27c-.2-1.1-.5-2.3-.8-3.4.02,1.18.29,2.34.8,3.4Z"/></svg>